M48
INCH,TZ
T1C0.040
%
G90
G05
T1
X20750Y-18750
X20750Y-19750
X20750Y-22250
X20750Y-23250
X20750Y-24250
X20750Y-25250
X21750Y-18750
X21750Y-19750
X21750Y-22250
X21750Y-23250
X21750Y-24250
X21750Y-25250
X29500Y-17000
X29500Y-18000
X30500Y-17000
X30500Y-18000
X34000Y-21500
X34000Y-22500
X35000Y-21500
X35000Y-22500
X38500Y-22500
X38500Y-23500
X39500Y-22500
X39500Y-23500
T0
M30
