G04 (created by PCBNEW (2013-may-18)-stable) date Wed 29 Apr 2015 02:25:17 AM PDT*
%MOIN*%
G04 Gerber Fmt 3.4, Leading zero omitted, Abs format*
%FSLAX34Y34*%
G01*
G70*
G90*
G04 APERTURE LIST*
%ADD10C,0.00590551*%
%ADD11C,0.00787402*%
%ADD12C,0.011811*%
%ADD13C,0.0031*%
%ADD14C,0.008*%
%ADD15C,0.0039*%
%ADD16C,0.012*%
%ADD17C,0.0043*%
G04 APERTURE END LIST*
G54D10*
G54D11*
X22762Y-17396D02*
X23062Y-17509D01*
X22762Y-17621D01*
X23231Y-17640D02*
X23287Y-17659D01*
X23381Y-17659D01*
X23419Y-17640D01*
X23437Y-17621D01*
X23456Y-17584D01*
X23456Y-17546D01*
X23437Y-17509D01*
X23419Y-17490D01*
X23381Y-17471D01*
X23306Y-17453D01*
X23269Y-17434D01*
X23250Y-17415D01*
X23231Y-17378D01*
X23231Y-17340D01*
X23250Y-17303D01*
X23269Y-17284D01*
X23306Y-17265D01*
X23400Y-17265D01*
X23456Y-17284D01*
X23625Y-17659D02*
X23625Y-17265D01*
X23793Y-17659D02*
X23793Y-17453D01*
X23775Y-17415D01*
X23737Y-17396D01*
X23681Y-17396D01*
X23643Y-17415D01*
X23625Y-17434D01*
X24037Y-17659D02*
X24000Y-17640D01*
X23981Y-17621D01*
X23962Y-17584D01*
X23962Y-17471D01*
X23981Y-17434D01*
X24000Y-17415D01*
X24037Y-17396D01*
X24093Y-17396D01*
X24131Y-17415D01*
X24150Y-17434D01*
X24168Y-17471D01*
X24168Y-17584D01*
X24150Y-17621D01*
X24131Y-17640D01*
X24093Y-17659D01*
X24037Y-17659D01*
X24337Y-17659D02*
X24337Y-17396D01*
X24337Y-17471D02*
X24356Y-17434D01*
X24375Y-17415D01*
X24412Y-17396D01*
X24450Y-17396D01*
X24525Y-17396D02*
X24675Y-17396D01*
X24581Y-17265D02*
X24581Y-17603D01*
X24600Y-17640D01*
X24637Y-17659D01*
X24675Y-17659D01*
X25050Y-17396D02*
X25200Y-17396D01*
X25106Y-17265D02*
X25106Y-17603D01*
X25125Y-17640D01*
X25162Y-17659D01*
X25200Y-17659D01*
X25387Y-17659D02*
X25350Y-17640D01*
X25331Y-17621D01*
X25312Y-17584D01*
X25312Y-17471D01*
X25331Y-17434D01*
X25350Y-17415D01*
X25387Y-17396D01*
X25443Y-17396D01*
X25481Y-17415D01*
X25500Y-17434D01*
X25518Y-17471D01*
X25518Y-17584D01*
X25500Y-17621D01*
X25481Y-17640D01*
X25443Y-17659D01*
X25387Y-17659D01*
X25987Y-17396D02*
X25987Y-17790D01*
X25987Y-17415D02*
X26024Y-17396D01*
X26099Y-17396D01*
X26137Y-17415D01*
X26156Y-17434D01*
X26174Y-17471D01*
X26174Y-17584D01*
X26156Y-17621D01*
X26137Y-17640D01*
X26099Y-17659D01*
X26024Y-17659D01*
X25987Y-17640D01*
X26343Y-17659D02*
X26343Y-17396D01*
X26343Y-17471D02*
X26362Y-17434D01*
X26381Y-17415D01*
X26418Y-17396D01*
X26456Y-17396D01*
X26643Y-17659D02*
X26606Y-17640D01*
X26587Y-17621D01*
X26568Y-17584D01*
X26568Y-17471D01*
X26587Y-17434D01*
X26606Y-17415D01*
X26643Y-17396D01*
X26699Y-17396D01*
X26737Y-17415D01*
X26756Y-17434D01*
X26774Y-17471D01*
X26774Y-17584D01*
X26756Y-17621D01*
X26737Y-17640D01*
X26699Y-17659D01*
X26643Y-17659D01*
X27112Y-17396D02*
X27112Y-17715D01*
X27093Y-17753D01*
X27074Y-17771D01*
X27037Y-17790D01*
X26981Y-17790D01*
X26943Y-17771D01*
X27112Y-17640D02*
X27074Y-17659D01*
X26999Y-17659D01*
X26962Y-17640D01*
X26943Y-17621D01*
X26924Y-17584D01*
X26924Y-17471D01*
X26943Y-17434D01*
X26962Y-17415D01*
X26999Y-17396D01*
X27074Y-17396D01*
X27112Y-17415D01*
X27299Y-17659D02*
X27299Y-17396D01*
X27299Y-17471D02*
X27318Y-17434D01*
X27337Y-17415D01*
X27374Y-17396D01*
X27412Y-17396D01*
X27712Y-17659D02*
X27712Y-17453D01*
X27693Y-17415D01*
X27655Y-17396D01*
X27580Y-17396D01*
X27543Y-17415D01*
X27712Y-17640D02*
X27674Y-17659D01*
X27580Y-17659D01*
X27543Y-17640D01*
X27524Y-17603D01*
X27524Y-17565D01*
X27543Y-17528D01*
X27580Y-17509D01*
X27674Y-17509D01*
X27712Y-17490D01*
X27899Y-17659D02*
X27899Y-17396D01*
X27899Y-17434D02*
X27918Y-17415D01*
X27955Y-17396D01*
X28012Y-17396D01*
X28049Y-17415D01*
X28068Y-17453D01*
X28068Y-17659D01*
X28068Y-17453D02*
X28087Y-17415D01*
X28124Y-17396D01*
X28180Y-17396D01*
X28218Y-17415D01*
X28237Y-17453D01*
X28237Y-17659D01*
G54D12*
X22484Y-22148D02*
X22821Y-22148D01*
X22653Y-22739D02*
X22653Y-22148D01*
X22962Y-22148D02*
X23356Y-22739D01*
X23356Y-22148D02*
X22962Y-22739D01*
X24340Y-22176D02*
X24284Y-22148D01*
X24199Y-22148D01*
X24115Y-22176D01*
X24059Y-22232D01*
X24031Y-22289D01*
X24003Y-22401D01*
X24003Y-22485D01*
X24031Y-22598D01*
X24059Y-22654D01*
X24115Y-22710D01*
X24199Y-22739D01*
X24256Y-22739D01*
X24340Y-22710D01*
X24368Y-22682D01*
X24368Y-22485D01*
X24256Y-22485D01*
X24621Y-22739D02*
X24621Y-22148D01*
X24762Y-22148D01*
X24846Y-22176D01*
X24902Y-22232D01*
X24931Y-22289D01*
X24959Y-22401D01*
X24959Y-22485D01*
X24931Y-22598D01*
X24902Y-22654D01*
X24846Y-22710D01*
X24762Y-22739D01*
X24621Y-22739D01*
X22821Y-23627D02*
X22793Y-23655D01*
X22709Y-23683D01*
X22653Y-23683D01*
X22568Y-23655D01*
X22512Y-23599D01*
X22484Y-23543D01*
X22456Y-23430D01*
X22456Y-23346D01*
X22484Y-23233D01*
X22512Y-23177D01*
X22568Y-23121D01*
X22653Y-23093D01*
X22709Y-23093D01*
X22793Y-23121D01*
X22821Y-23149D01*
X23075Y-23683D02*
X23075Y-23093D01*
X23075Y-23374D02*
X23412Y-23374D01*
X23412Y-23683D02*
X23412Y-23093D01*
X24453Y-23121D02*
X24396Y-23093D01*
X24312Y-23093D01*
X24228Y-23121D01*
X24171Y-23177D01*
X24143Y-23233D01*
X24115Y-23346D01*
X24115Y-23430D01*
X24143Y-23543D01*
X24171Y-23599D01*
X24228Y-23655D01*
X24312Y-23683D01*
X24368Y-23683D01*
X24453Y-23655D01*
X24481Y-23627D01*
X24481Y-23430D01*
X24368Y-23430D01*
X24706Y-23149D02*
X24734Y-23121D01*
X24790Y-23093D01*
X24931Y-23093D01*
X24987Y-23121D01*
X25015Y-23149D01*
X25043Y-23205D01*
X25043Y-23262D01*
X25015Y-23346D01*
X24678Y-23683D01*
X25043Y-23683D01*
X22850Y-24628D02*
X22653Y-24347D01*
X22512Y-24628D02*
X22512Y-24038D01*
X22737Y-24038D01*
X22793Y-24066D01*
X22821Y-24094D01*
X22850Y-24150D01*
X22850Y-24235D01*
X22821Y-24291D01*
X22793Y-24319D01*
X22737Y-24347D01*
X22512Y-24347D01*
X23075Y-24600D02*
X23159Y-24628D01*
X23300Y-24628D01*
X23356Y-24600D01*
X23384Y-24572D01*
X23412Y-24516D01*
X23412Y-24460D01*
X23384Y-24403D01*
X23356Y-24375D01*
X23300Y-24347D01*
X23187Y-24319D01*
X23131Y-24291D01*
X23103Y-24263D01*
X23075Y-24206D01*
X23075Y-24150D01*
X23103Y-24094D01*
X23131Y-24066D01*
X23187Y-24038D01*
X23328Y-24038D01*
X23412Y-24066D01*
X24424Y-24066D02*
X24368Y-24038D01*
X24284Y-24038D01*
X24199Y-24066D01*
X24143Y-24122D01*
X24115Y-24178D01*
X24087Y-24291D01*
X24087Y-24375D01*
X24115Y-24488D01*
X24143Y-24544D01*
X24199Y-24600D01*
X24284Y-24628D01*
X24340Y-24628D01*
X24424Y-24600D01*
X24453Y-24572D01*
X24453Y-24375D01*
X24340Y-24375D01*
X24818Y-24038D02*
X24874Y-24038D01*
X24931Y-24066D01*
X24959Y-24094D01*
X24987Y-24150D01*
X25015Y-24263D01*
X25015Y-24403D01*
X24987Y-24516D01*
X24959Y-24572D01*
X24931Y-24600D01*
X24874Y-24628D01*
X24818Y-24628D01*
X24762Y-24600D01*
X24734Y-24572D01*
X24706Y-24516D01*
X24678Y-24403D01*
X24678Y-24263D01*
X24706Y-24150D01*
X24734Y-24094D01*
X24762Y-24066D01*
X24818Y-24038D01*
X22456Y-24983D02*
X22653Y-25573D01*
X22850Y-24983D01*
X23384Y-25517D02*
X23356Y-25545D01*
X23271Y-25573D01*
X23215Y-25573D01*
X23131Y-25545D01*
X23075Y-25489D01*
X23046Y-25433D01*
X23018Y-25320D01*
X23018Y-25236D01*
X23046Y-25123D01*
X23075Y-25067D01*
X23131Y-25011D01*
X23215Y-24983D01*
X23271Y-24983D01*
X23356Y-25011D01*
X23384Y-25039D01*
X24424Y-25573D02*
X24228Y-25292D01*
X24087Y-25573D02*
X24087Y-24983D01*
X24312Y-24983D01*
X24368Y-25011D01*
X24396Y-25039D01*
X24424Y-25095D01*
X24424Y-25179D01*
X24396Y-25236D01*
X24368Y-25264D01*
X24312Y-25292D01*
X24087Y-25292D01*
X24621Y-24983D02*
X25015Y-25573D01*
X25015Y-24983D02*
X24621Y-25573D01*
X20350Y-17239D02*
X20153Y-16957D01*
X20012Y-17239D02*
X20012Y-16648D01*
X20237Y-16648D01*
X20293Y-16676D01*
X20321Y-16704D01*
X20350Y-16760D01*
X20350Y-16845D01*
X20321Y-16901D01*
X20293Y-16929D01*
X20237Y-16957D01*
X20012Y-16957D01*
X20546Y-16648D02*
X20940Y-17239D01*
X20940Y-16648D02*
X20546Y-17239D01*
X21924Y-16676D02*
X21868Y-16648D01*
X21784Y-16648D01*
X21699Y-16676D01*
X21643Y-16732D01*
X21615Y-16789D01*
X21587Y-16901D01*
X21587Y-16985D01*
X21615Y-17098D01*
X21643Y-17154D01*
X21699Y-17210D01*
X21784Y-17239D01*
X21840Y-17239D01*
X21924Y-17210D01*
X21953Y-17182D01*
X21953Y-16985D01*
X21840Y-16985D01*
X22318Y-16648D02*
X22374Y-16648D01*
X22431Y-16676D01*
X22459Y-16704D01*
X22487Y-16760D01*
X22515Y-16873D01*
X22515Y-17014D01*
X22487Y-17126D01*
X22459Y-17182D01*
X22431Y-17210D01*
X22374Y-17239D01*
X22318Y-17239D01*
X22262Y-17210D01*
X22234Y-17182D01*
X22206Y-17126D01*
X22178Y-17014D01*
X22178Y-16873D01*
X22206Y-16760D01*
X22234Y-16704D01*
X22262Y-16676D01*
X22318Y-16648D01*
X19984Y-17593D02*
X20321Y-17593D01*
X20153Y-18183D02*
X20153Y-17593D01*
X20462Y-17593D02*
X20856Y-18183D01*
X20856Y-17593D02*
X20462Y-18183D01*
X21840Y-17621D02*
X21784Y-17593D01*
X21699Y-17593D01*
X21615Y-17621D01*
X21559Y-17677D01*
X21531Y-17733D01*
X21503Y-17846D01*
X21503Y-17930D01*
X21531Y-18043D01*
X21559Y-18099D01*
X21615Y-18155D01*
X21699Y-18183D01*
X21756Y-18183D01*
X21840Y-18155D01*
X21868Y-18127D01*
X21868Y-17930D01*
X21756Y-17930D01*
X22121Y-18183D02*
X22121Y-17593D01*
X22262Y-17593D01*
X22346Y-17621D01*
X22402Y-17677D01*
X22431Y-17733D01*
X22459Y-17846D01*
X22459Y-17930D01*
X22431Y-18043D01*
X22402Y-18099D01*
X22346Y-18155D01*
X22262Y-18183D01*
X22121Y-18183D01*
X33234Y-23398D02*
X33600Y-23398D01*
X33403Y-23623D01*
X33487Y-23623D01*
X33543Y-23651D01*
X33571Y-23679D01*
X33600Y-23735D01*
X33600Y-23876D01*
X33571Y-23932D01*
X33543Y-23960D01*
X33487Y-23989D01*
X33318Y-23989D01*
X33262Y-23960D01*
X33234Y-23932D01*
X33768Y-23398D02*
X33965Y-23989D01*
X34162Y-23398D01*
X35118Y-23426D02*
X35062Y-23398D01*
X34978Y-23398D01*
X34893Y-23426D01*
X34837Y-23482D01*
X34809Y-23539D01*
X34781Y-23651D01*
X34781Y-23735D01*
X34809Y-23848D01*
X34837Y-23904D01*
X34893Y-23960D01*
X34978Y-23989D01*
X35034Y-23989D01*
X35118Y-23960D01*
X35146Y-23932D01*
X35146Y-23735D01*
X35034Y-23735D01*
X35399Y-23989D02*
X35399Y-23398D01*
X35540Y-23398D01*
X35624Y-23426D01*
X35681Y-23482D01*
X35709Y-23539D01*
X35737Y-23651D01*
X35737Y-23735D01*
X35709Y-23848D01*
X35681Y-23904D01*
X35624Y-23960D01*
X35540Y-23989D01*
X35399Y-23989D01*
X33234Y-24343D02*
X33600Y-24343D01*
X33403Y-24568D01*
X33487Y-24568D01*
X33543Y-24596D01*
X33571Y-24624D01*
X33600Y-24680D01*
X33600Y-24821D01*
X33571Y-24877D01*
X33543Y-24905D01*
X33487Y-24933D01*
X33318Y-24933D01*
X33262Y-24905D01*
X33234Y-24877D01*
X33768Y-24343D02*
X33965Y-24933D01*
X34162Y-24343D01*
X35118Y-24371D02*
X35062Y-24343D01*
X34978Y-24343D01*
X34893Y-24371D01*
X34837Y-24427D01*
X34809Y-24483D01*
X34781Y-24596D01*
X34781Y-24680D01*
X34809Y-24793D01*
X34837Y-24849D01*
X34893Y-24905D01*
X34978Y-24933D01*
X35034Y-24933D01*
X35118Y-24905D01*
X35146Y-24877D01*
X35146Y-24680D01*
X35034Y-24680D01*
X35399Y-24933D02*
X35399Y-24343D01*
X35540Y-24343D01*
X35624Y-24371D01*
X35681Y-24427D01*
X35709Y-24483D01*
X35737Y-24596D01*
X35737Y-24680D01*
X35709Y-24793D01*
X35681Y-24849D01*
X35624Y-24905D01*
X35540Y-24933D01*
X35399Y-24933D01*
X37878Y-24398D02*
X37597Y-24398D01*
X37568Y-24679D01*
X37597Y-24651D01*
X37653Y-24623D01*
X37793Y-24623D01*
X37850Y-24651D01*
X37878Y-24679D01*
X37906Y-24735D01*
X37906Y-24876D01*
X37878Y-24932D01*
X37850Y-24960D01*
X37793Y-24989D01*
X37653Y-24989D01*
X37597Y-24960D01*
X37568Y-24932D01*
X38075Y-24398D02*
X38271Y-24989D01*
X38468Y-24398D01*
X39396Y-24398D02*
X39115Y-24398D01*
X39087Y-24679D01*
X39115Y-24651D01*
X39171Y-24623D01*
X39312Y-24623D01*
X39368Y-24651D01*
X39396Y-24679D01*
X39424Y-24735D01*
X39424Y-24876D01*
X39396Y-24932D01*
X39368Y-24960D01*
X39312Y-24989D01*
X39171Y-24989D01*
X39115Y-24960D01*
X39087Y-24932D01*
X39593Y-24398D02*
X39790Y-24989D01*
X39987Y-24398D01*
X37779Y-25371D02*
X37723Y-25343D01*
X37639Y-25343D01*
X37554Y-25371D01*
X37498Y-25427D01*
X37470Y-25483D01*
X37442Y-25596D01*
X37442Y-25680D01*
X37470Y-25793D01*
X37498Y-25849D01*
X37554Y-25905D01*
X37639Y-25933D01*
X37695Y-25933D01*
X37779Y-25905D01*
X37807Y-25877D01*
X37807Y-25680D01*
X37695Y-25680D01*
X38061Y-25933D02*
X38061Y-25343D01*
X38201Y-25343D01*
X38285Y-25371D01*
X38342Y-25427D01*
X38370Y-25483D01*
X38398Y-25596D01*
X38398Y-25680D01*
X38370Y-25793D01*
X38342Y-25849D01*
X38285Y-25905D01*
X38201Y-25933D01*
X38061Y-25933D01*
X39101Y-25933D02*
X39101Y-25343D01*
X39242Y-25343D01*
X39326Y-25371D01*
X39382Y-25427D01*
X39410Y-25483D01*
X39438Y-25596D01*
X39438Y-25680D01*
X39410Y-25793D01*
X39382Y-25849D01*
X39326Y-25905D01*
X39242Y-25933D01*
X39101Y-25933D01*
X39804Y-25343D02*
X39917Y-25343D01*
X39973Y-25371D01*
X40029Y-25427D01*
X40057Y-25540D01*
X40057Y-25737D01*
X40029Y-25849D01*
X39973Y-25905D01*
X39917Y-25933D01*
X39804Y-25933D01*
X39748Y-25905D01*
X39692Y-25849D01*
X39663Y-25737D01*
X39663Y-25540D01*
X39692Y-25427D01*
X39748Y-25371D01*
X39804Y-25343D01*
X31543Y-16926D02*
X31487Y-16898D01*
X31403Y-16898D01*
X31318Y-16926D01*
X31262Y-16982D01*
X31234Y-17039D01*
X31206Y-17151D01*
X31206Y-17235D01*
X31234Y-17348D01*
X31262Y-17404D01*
X31318Y-17460D01*
X31403Y-17489D01*
X31459Y-17489D01*
X31543Y-17460D01*
X31571Y-17432D01*
X31571Y-17235D01*
X31459Y-17235D01*
X31825Y-17489D02*
X31825Y-16898D01*
X31965Y-16898D01*
X32050Y-16926D01*
X32106Y-16982D01*
X32134Y-17039D01*
X32162Y-17151D01*
X32162Y-17235D01*
X32134Y-17348D01*
X32106Y-17404D01*
X32050Y-17460D01*
X31965Y-17489D01*
X31825Y-17489D01*
X33174Y-16926D02*
X33118Y-16898D01*
X33034Y-16898D01*
X32949Y-16926D01*
X32893Y-16982D01*
X32865Y-17039D01*
X32837Y-17151D01*
X32837Y-17235D01*
X32865Y-17348D01*
X32893Y-17404D01*
X32949Y-17460D01*
X33034Y-17489D01*
X33090Y-17489D01*
X33174Y-17460D01*
X33203Y-17432D01*
X33203Y-17235D01*
X33090Y-17235D01*
X33456Y-17489D02*
X33456Y-16898D01*
X33596Y-16898D01*
X33681Y-16926D01*
X33737Y-16982D01*
X33765Y-17039D01*
X33793Y-17151D01*
X33793Y-17235D01*
X33765Y-17348D01*
X33737Y-17404D01*
X33681Y-17460D01*
X33596Y-17489D01*
X33456Y-17489D01*
X31628Y-17843D02*
X31347Y-17843D01*
X31318Y-18124D01*
X31347Y-18096D01*
X31403Y-18068D01*
X31543Y-18068D01*
X31600Y-18096D01*
X31628Y-18124D01*
X31656Y-18180D01*
X31656Y-18321D01*
X31628Y-18377D01*
X31600Y-18405D01*
X31543Y-18433D01*
X31403Y-18433D01*
X31347Y-18405D01*
X31318Y-18377D01*
X31825Y-17843D02*
X32021Y-18433D01*
X32218Y-17843D01*
X33146Y-17843D02*
X32865Y-17843D01*
X32837Y-18124D01*
X32865Y-18096D01*
X32921Y-18068D01*
X33062Y-18068D01*
X33118Y-18096D01*
X33146Y-18124D01*
X33174Y-18180D01*
X33174Y-18321D01*
X33146Y-18377D01*
X33118Y-18405D01*
X33062Y-18433D01*
X32921Y-18433D01*
X32865Y-18405D01*
X32837Y-18377D01*
X33343Y-17843D02*
X33540Y-18433D01*
X33737Y-17843D01*
G54D13*
X27599Y-23888D02*
G75*
G03X27599Y-23888I-62J0D01*
G74*
G01*
X28500Y-23550D02*
X28500Y-23950D01*
X27475Y-23550D02*
X27475Y-23950D01*
X28500Y-23950D02*
X27475Y-23950D01*
X27475Y-23550D02*
X28500Y-23550D01*
G54D14*
X30350Y-22650D02*
X31550Y-22650D01*
X31550Y-22650D02*
X31550Y-19850D01*
X31550Y-19850D02*
X30350Y-19850D01*
X29150Y-22650D02*
X28850Y-22650D01*
X28850Y-22650D02*
X27950Y-22050D01*
X27950Y-22050D02*
X27950Y-20450D01*
X27950Y-20450D02*
X28850Y-19850D01*
X28850Y-19850D02*
X29150Y-19850D01*
G54D15*
X23600Y-19900D02*
G75*
G03X23600Y-19900I-50J0D01*
G74*
G01*
X23550Y-19450D02*
X23550Y-19850D01*
X23550Y-19850D02*
X22950Y-19850D01*
X22950Y-19850D02*
X22950Y-19450D01*
X22950Y-19050D02*
X22950Y-18650D01*
X22950Y-18650D02*
X23550Y-18650D01*
X23550Y-18650D02*
X23550Y-19050D01*
X32500Y-21100D02*
G75*
G03X32500Y-21100I-50J0D01*
G74*
G01*
X32450Y-21550D02*
X32450Y-21150D01*
X32450Y-21150D02*
X33050Y-21150D01*
X33050Y-21150D02*
X33050Y-21550D01*
X33050Y-21950D02*
X33050Y-22350D01*
X33050Y-22350D02*
X32450Y-22350D01*
X32450Y-22350D02*
X32450Y-21950D01*
X35750Y-20100D02*
G75*
G03X35750Y-20100I-50J0D01*
G74*
G01*
X35700Y-20550D02*
X35700Y-20150D01*
X35700Y-20150D02*
X36300Y-20150D01*
X36300Y-20150D02*
X36300Y-20550D01*
X36300Y-20950D02*
X36300Y-21350D01*
X36300Y-21350D02*
X35700Y-21350D01*
X35700Y-21350D02*
X35700Y-20950D01*
X27400Y-25300D02*
G75*
G03X27400Y-25300I-50J0D01*
G74*
G01*
X27800Y-25300D02*
X27400Y-25300D01*
X27400Y-25300D02*
X27400Y-24700D01*
X27400Y-24700D02*
X27800Y-24700D01*
X28200Y-24700D02*
X28600Y-24700D01*
X28600Y-24700D02*
X28600Y-25300D01*
X28600Y-25300D02*
X28200Y-25300D01*
X25750Y-20850D02*
G75*
G03X25750Y-20850I-50J0D01*
G74*
G01*
X25700Y-21300D02*
X25700Y-20900D01*
X25700Y-20900D02*
X26300Y-20900D01*
X26300Y-20900D02*
X26300Y-21300D01*
X26300Y-21700D02*
X26300Y-22100D01*
X26300Y-22100D02*
X25700Y-22100D01*
X25700Y-22100D02*
X25700Y-21700D01*
G54D16*
X20250Y-25750D02*
X20250Y-21750D01*
X20250Y-21750D02*
X22250Y-21750D01*
X22250Y-21750D02*
X22250Y-25750D01*
X22250Y-25750D02*
X20250Y-25750D01*
X29000Y-16500D02*
X31000Y-16500D01*
X31000Y-16500D02*
X31000Y-18500D01*
X31000Y-18500D02*
X29000Y-18500D01*
X29000Y-18500D02*
X29000Y-16500D01*
X35500Y-21000D02*
X35500Y-23000D01*
X35500Y-23000D02*
X33500Y-23000D01*
X33500Y-23000D02*
X33500Y-21000D01*
X33500Y-21000D02*
X35500Y-21000D01*
X40000Y-24000D02*
X38000Y-24000D01*
X38000Y-24000D02*
X38000Y-22000D01*
X38000Y-22000D02*
X40000Y-22000D01*
X40000Y-22000D02*
X40000Y-24000D01*
X20250Y-18250D02*
X22250Y-18250D01*
X22250Y-18250D02*
X22250Y-20250D01*
X22250Y-20250D02*
X20250Y-20250D01*
X20250Y-20250D02*
X20250Y-18250D01*
G54D15*
X27545Y-22726D02*
X27573Y-22735D01*
X27582Y-22745D01*
X27591Y-22764D01*
X27591Y-22792D01*
X27582Y-22810D01*
X27573Y-22820D01*
X27554Y-22829D01*
X27479Y-22829D01*
X27479Y-22632D01*
X27545Y-22632D01*
X27563Y-22642D01*
X27573Y-22651D01*
X27582Y-22670D01*
X27582Y-22689D01*
X27573Y-22707D01*
X27563Y-22717D01*
X27545Y-22726D01*
X27479Y-22726D01*
X27666Y-22820D02*
X27695Y-22829D01*
X27742Y-22829D01*
X27760Y-22820D01*
X27770Y-22810D01*
X27779Y-22792D01*
X27779Y-22773D01*
X27770Y-22754D01*
X27760Y-22745D01*
X27742Y-22735D01*
X27704Y-22726D01*
X27685Y-22717D01*
X27676Y-22707D01*
X27666Y-22689D01*
X27666Y-22670D01*
X27676Y-22651D01*
X27685Y-22642D01*
X27704Y-22632D01*
X27751Y-22632D01*
X27779Y-22642D01*
X27854Y-22820D02*
X27882Y-22829D01*
X27929Y-22829D01*
X27948Y-22820D01*
X27957Y-22810D01*
X27967Y-22792D01*
X27967Y-22773D01*
X27957Y-22754D01*
X27948Y-22745D01*
X27929Y-22735D01*
X27892Y-22726D01*
X27873Y-22717D01*
X27863Y-22707D01*
X27854Y-22689D01*
X27854Y-22670D01*
X27863Y-22651D01*
X27873Y-22642D01*
X27892Y-22632D01*
X27939Y-22632D01*
X27967Y-22642D01*
X28154Y-22829D02*
X28042Y-22829D01*
X28098Y-22829D02*
X28098Y-22632D01*
X28079Y-22660D01*
X28060Y-22679D01*
X28042Y-22689D01*
X28220Y-22632D02*
X28342Y-22632D01*
X28276Y-22707D01*
X28304Y-22707D01*
X28323Y-22717D01*
X28333Y-22726D01*
X28342Y-22745D01*
X28342Y-22792D01*
X28333Y-22810D01*
X28323Y-22820D01*
X28304Y-22829D01*
X28248Y-22829D01*
X28229Y-22820D01*
X28220Y-22810D01*
X28454Y-22717D02*
X28436Y-22707D01*
X28426Y-22698D01*
X28417Y-22679D01*
X28417Y-22670D01*
X28426Y-22651D01*
X28436Y-22642D01*
X28454Y-22632D01*
X28492Y-22632D01*
X28511Y-22642D01*
X28520Y-22651D01*
X28530Y-22670D01*
X28530Y-22679D01*
X28520Y-22698D01*
X28511Y-22707D01*
X28492Y-22717D01*
X28454Y-22717D01*
X28436Y-22726D01*
X28426Y-22735D01*
X28417Y-22754D01*
X28417Y-22792D01*
X28426Y-22810D01*
X28436Y-22820D01*
X28454Y-22829D01*
X28492Y-22829D01*
X28511Y-22820D01*
X28520Y-22810D01*
X28530Y-22792D01*
X28530Y-22754D01*
X28520Y-22735D01*
X28511Y-22726D01*
X28492Y-22717D01*
G54D14*
X29911Y-22116D02*
X29911Y-22307D01*
X29511Y-22307D01*
X29911Y-21983D02*
X29511Y-21983D01*
X29797Y-21850D01*
X29511Y-21716D01*
X29911Y-21716D01*
X29911Y-21316D02*
X29911Y-21545D01*
X29911Y-21430D02*
X29511Y-21430D01*
X29569Y-21469D01*
X29607Y-21507D01*
X29626Y-21545D01*
X29911Y-20935D02*
X29911Y-21164D01*
X29911Y-21049D02*
X29511Y-21049D01*
X29569Y-21088D01*
X29607Y-21126D01*
X29626Y-21164D01*
X29911Y-20554D02*
X29911Y-20783D01*
X29911Y-20669D02*
X29511Y-20669D01*
X29569Y-20707D01*
X29607Y-20745D01*
X29626Y-20783D01*
X29511Y-20421D02*
X29511Y-20154D01*
X29911Y-20326D01*
G54D17*
X23132Y-18329D02*
X23020Y-18329D01*
X23076Y-18329D02*
X23076Y-18132D01*
X23057Y-18160D01*
X23038Y-18179D01*
X23020Y-18189D01*
X23254Y-18132D02*
X23273Y-18132D01*
X23292Y-18142D01*
X23301Y-18151D01*
X23310Y-18170D01*
X23320Y-18207D01*
X23320Y-18254D01*
X23310Y-18292D01*
X23301Y-18310D01*
X23292Y-18320D01*
X23273Y-18329D01*
X23254Y-18329D01*
X23235Y-18320D01*
X23226Y-18310D01*
X23217Y-18292D01*
X23207Y-18254D01*
X23207Y-18207D01*
X23217Y-18170D01*
X23226Y-18151D01*
X23235Y-18142D01*
X23254Y-18132D01*
X23404Y-18329D02*
X23404Y-18132D01*
X23423Y-18254D02*
X23479Y-18329D01*
X23479Y-18198D02*
X23404Y-18273D01*
X32445Y-20829D02*
X32332Y-20829D01*
X32388Y-20829D02*
X32388Y-20632D01*
X32370Y-20660D01*
X32351Y-20679D01*
X32332Y-20689D01*
X32567Y-20632D02*
X32585Y-20632D01*
X32604Y-20642D01*
X32613Y-20651D01*
X32623Y-20670D01*
X32632Y-20707D01*
X32632Y-20754D01*
X32623Y-20792D01*
X32613Y-20810D01*
X32604Y-20820D01*
X32585Y-20829D01*
X32567Y-20829D01*
X32548Y-20820D01*
X32538Y-20810D01*
X32529Y-20792D01*
X32520Y-20754D01*
X32520Y-20707D01*
X32529Y-20670D01*
X32538Y-20651D01*
X32548Y-20642D01*
X32567Y-20632D01*
X32754Y-20632D02*
X32773Y-20632D01*
X32792Y-20642D01*
X32801Y-20651D01*
X32810Y-20670D01*
X32820Y-20707D01*
X32820Y-20754D01*
X32810Y-20792D01*
X32801Y-20810D01*
X32792Y-20820D01*
X32773Y-20829D01*
X32754Y-20829D01*
X32735Y-20820D01*
X32726Y-20810D01*
X32717Y-20792D01*
X32707Y-20754D01*
X32707Y-20707D01*
X32717Y-20670D01*
X32726Y-20651D01*
X32735Y-20642D01*
X32754Y-20632D01*
X32904Y-20698D02*
X32904Y-20895D01*
X32904Y-20707D02*
X32923Y-20698D01*
X32961Y-20698D01*
X32979Y-20707D01*
X32989Y-20717D01*
X32998Y-20735D01*
X32998Y-20792D01*
X32989Y-20810D01*
X32979Y-20820D01*
X32961Y-20829D01*
X32923Y-20829D01*
X32904Y-20820D01*
X33148Y-20726D02*
X33083Y-20726D01*
X33083Y-20829D02*
X33083Y-20632D01*
X33176Y-20632D01*
X35695Y-19829D02*
X35582Y-19829D01*
X35638Y-19829D02*
X35638Y-19632D01*
X35620Y-19660D01*
X35601Y-19679D01*
X35582Y-19689D01*
X35817Y-19632D02*
X35835Y-19632D01*
X35854Y-19642D01*
X35863Y-19651D01*
X35873Y-19670D01*
X35882Y-19707D01*
X35882Y-19754D01*
X35873Y-19792D01*
X35863Y-19810D01*
X35854Y-19820D01*
X35835Y-19829D01*
X35817Y-19829D01*
X35798Y-19820D01*
X35788Y-19810D01*
X35779Y-19792D01*
X35770Y-19754D01*
X35770Y-19707D01*
X35779Y-19670D01*
X35788Y-19651D01*
X35798Y-19642D01*
X35817Y-19632D01*
X36004Y-19632D02*
X36023Y-19632D01*
X36042Y-19642D01*
X36051Y-19651D01*
X36060Y-19670D01*
X36070Y-19707D01*
X36070Y-19754D01*
X36060Y-19792D01*
X36051Y-19810D01*
X36042Y-19820D01*
X36023Y-19829D01*
X36004Y-19829D01*
X35985Y-19820D01*
X35976Y-19810D01*
X35967Y-19792D01*
X35957Y-19754D01*
X35957Y-19707D01*
X35967Y-19670D01*
X35976Y-19651D01*
X35985Y-19642D01*
X36004Y-19632D01*
X36154Y-19698D02*
X36154Y-19895D01*
X36154Y-19707D02*
X36173Y-19698D01*
X36211Y-19698D01*
X36229Y-19707D01*
X36239Y-19717D01*
X36248Y-19735D01*
X36248Y-19792D01*
X36239Y-19810D01*
X36229Y-19820D01*
X36211Y-19829D01*
X36173Y-19829D01*
X36154Y-19820D01*
X36398Y-19726D02*
X36333Y-19726D01*
X36333Y-19829D02*
X36333Y-19632D01*
X36426Y-19632D01*
X27882Y-25829D02*
X27770Y-25829D01*
X27826Y-25829D02*
X27826Y-25632D01*
X27807Y-25660D01*
X27788Y-25679D01*
X27770Y-25689D01*
X28004Y-25632D02*
X28023Y-25632D01*
X28042Y-25642D01*
X28051Y-25651D01*
X28060Y-25670D01*
X28070Y-25707D01*
X28070Y-25754D01*
X28060Y-25792D01*
X28051Y-25810D01*
X28042Y-25820D01*
X28023Y-25829D01*
X28004Y-25829D01*
X27985Y-25820D01*
X27976Y-25810D01*
X27967Y-25792D01*
X27957Y-25754D01*
X27957Y-25707D01*
X27967Y-25670D01*
X27976Y-25651D01*
X27985Y-25642D01*
X28004Y-25632D01*
X28154Y-25829D02*
X28154Y-25632D01*
X28173Y-25754D02*
X28229Y-25829D01*
X28229Y-25698D02*
X28154Y-25773D01*
X25882Y-20579D02*
X25770Y-20579D01*
X25826Y-20579D02*
X25826Y-20382D01*
X25807Y-20410D01*
X25788Y-20429D01*
X25770Y-20439D01*
X26004Y-20382D02*
X26023Y-20382D01*
X26042Y-20392D01*
X26051Y-20401D01*
X26060Y-20420D01*
X26070Y-20457D01*
X26070Y-20504D01*
X26060Y-20542D01*
X26051Y-20560D01*
X26042Y-20570D01*
X26023Y-20579D01*
X26004Y-20579D01*
X25985Y-20570D01*
X25976Y-20560D01*
X25967Y-20542D01*
X25957Y-20504D01*
X25957Y-20457D01*
X25967Y-20420D01*
X25976Y-20401D01*
X25985Y-20392D01*
X26004Y-20382D01*
X26154Y-20579D02*
X26154Y-20382D01*
X26173Y-20504D02*
X26229Y-20579D01*
X26229Y-20448D02*
X26154Y-20523D01*
M02*
